# xmcd
#
# Track frame offsets: 
#        150
#        23174
#        37137
#        57730
#        69839
#        89613
#        100598
#        124763
#        156070
#        176941
#        193546
#        214426
#        234737
#        250125
#        256715
#        272368
#        293378
#        313151
#        327431
#        340585
#
# Disc length: 4741 seconds
#
# Revision: 3
# Processed by: cddbd v1.5.2PL0 Copyright (c) Steve Scherf et al.
# Submitted via: ExactAudioCopy v0.99pb4
#
DISCID=23128314
DTITLE=Various Artist - Sensation Amsterdam 2008 CD2
DYEAR=2008
DGENRE=Rave
TTITLE0=Alex Gaudino - Watch Out (Nari and Milani Club Mix)
TTITLE1=Dj Chuckie - Let the Bass Kick
TTITLE2=Dave Spoon and Paul Harris Ft. Sam Obernik - Baditude
TTITLE3=Artrax Ft. Andy - Hard to Love (Get Far Remix)
TTITLE4=Hardsoul presents TJ Cases Ft. Natalie Broomes - Nothing Bette
TTITLE4=r Than Your Lovin' (Roog and Prom Remix)
TTITLE5=Hardwell Presents Rehab - MRKRSTFT (Hardwell Remix)
TTITLE6=Gianluca Motta - Not Alone (Tiger Stripes Remix)
TTITLE7=Mark Knight and Funkagenda - The Man With the Red Face (Mark K
TTITLE7=night Remix)
TTITLE8=Steve Angello - Twixx
TTITLE9=Phonk d'or - Fuck Me Up
TTITLE10=The Shapeshifters - Chime
TTITLE11=Fragma - Toca's miracle (Inpetto Remix)
TTITLE12=Tocadisco - Morumbi
TTITLE13=Frederico Franchi - Pears (Instrumental)
TTITLE14=Felix Da Housecat - Tweak (Extended Mix)
TTITLE15=Utah Saints - Something Good 2008 (Ian Carrey Remix)
TTITLE16=The Nightcrawlers - Push the Feeling On 2008 (Roger's Release
TTITLE16=Mix)
TTITLE17=Kraak and Smaak Ft. Ben Westbeech - Squeeze Me (The Trevor Love
TTITLE17=ys Skeezer Peezer Mix)
TTITLE18=Marcel Woods - Life is Like a Box of Chocolates (Milka Versio
TTITLE18=n)
TTITLE19=Mr Sam vs. The Human Resource - Dominator
EXTD=YEAR: 2008
EXTT0=
EXTT1=
EXTT2=
EXTT3=
EXTT4=
EXTT5=
EXTT6=
EXTT7=
EXTT8=
EXTT9=
EXTT10=
EXTT11=
EXTT12=
EXTT13=
EXTT14=
EXTT15=
EXTT16=
EXTT17=
EXTT18=
EXTT19=
PLAYORDER=
